<?xml version="1.0" standalone="no"?><!DOCTYPE svg PUBLIC "-//W3C//DTD SVG 1.1//EN" "http://www.w3.org/Graphics/SVG/1.1/DTD/svg11.dtd"><svg t="1639122366474" class="icon" viewBox="0 0 1024 1024" version="1.1" xmlns="http://www.w3.org/2000/svg" p-id="3093" xmlns:xlink="http://www.w3.org/1999/xlink" width="200" height="200"><defs><style type="text/css"></style></defs><path d="M681.863168 325.40672c16.769024 7.149568 34.420736 12.896256 50.335744 21.757952 86.659072 48.246784 132.847616 122.073088 134.899712 221.57312 1.368064 66.516992 0.280576 133.083136 0.247808 199.6288-0.012288 26.699776-16.703488 43.548672-43.188224 43.552768-197.931008 0.02048-395.859968 0.02048-593.788928-0.004096-25.827328-0.004096-42.8544-17.025024-42.872832-42.840064-0.047104-66.203648-0.038912-132.407296-0.01024-198.612992 0.047104-109.805568 69.402624-205.678592 173.934592-239.601664 8.527872-2.768896 10.840064-6.483968 10.5472-14.864384-0.966656-27.645952-0.385024-55.054336 10.043392-81.5104 25.380864-64.393216 91.650048-105.23648 160.11264-97.988608 69.996544 7.411712 127.051776 61.165568 136.7552 130.279424 2.732032 19.456 2.097152 39.389184 2.983936 58.630144zM213.61664 705.431552c0 21.428224-0.059392 41.519104 0.02048 61.607936 0.057344 14.311424 4.497408 18.860032 19.044352 18.864128 196.608 0.0512 393.216 0.0512 589.824-0.008192 14.327808-0.004096 18.817024-4.624384 18.819072-19.183616 0.016384-67.244032 1.644544-134.539264-0.579584-201.711616-3.168256-95.739904-51.564544-162.627584-137.603072-203.046912-6.643712-3.121152-13.815808-5.126144-21.680128-7.991296v80.697344c23.599104 9.474048 32.268288 28.022784 30.337024 52.824064-0.555008 7.124992 0.004096 14.331904-0.108544 21.497856a43.4176 43.4176 0 0 1-43.180032 42.840064c-24.571904 0.212992-44.304384-18.327552-44.756992-42.268672-0.212992-11.259904-0.124928-22.528-0.016384-33.789952 0.131072-14.319616 5.564416-27.725824 17.911808-33.583104 13.799424-6.54336 13.75232-16.306176 13.395968-27.961344-0.243712-7.84384-0.047104-15.699968-0.047104-23.549952v-8.312832-8.439808-8.534016-8.718336c0-1.683456-0.012288-3.366912-0.014336-5.04832 0-0.735232-0.053248-1.460224 0.045056-2.193408 0.096256-0.702464 0.272384-1.466368-0.024576-2.148352-0.534528-1.220608-2.678784-0.657408-3.663872-0.724992l-3.883008-0.264192c-2.510848-0.176128-5.019648-0.362496-7.530496-0.544768a478.37184 478.37184 0 0 0-14.630912-0.892928 213.233664 213.233664 0 0 0-8.091648-0.192512c-59.736064-0.212992-119.468032-0.2048-179.2 0.002048-10.532864 0.036864-21.051392 1.72032-31.594496 2.011136-6.662144 0.18432-8.687616 2.838528-8.595456 9.353216 0.32768 23.205888 0.290816 46.422016 0.049152 69.629952-0.063488 6.049792 1.531904 9.414656 7.448576 12.439552 15.4624 7.907328 23.650304 21.098496 23.762944 38.793216 0.065536 10.579968 0.118784 21.161984-0.01024 31.741952-0.294912 24.303616-19.499008 43.167744-43.84768 43.198464-24.406016 0.032768-43.753472-18.7392-44.097536-42.942464a1314.054144 1314.054144 0 0 1-0.004096-32.768c0.165888-15.542272 6.643712-28.622848 20.109312-35.62496 9.828352-5.111808 11.046912-11.341824 10.774528-20.822016-0.610304-21.297152-0.190464-42.622976-0.190464-63.496192-1.642496-0.516096-2.009088-0.774144-2.287616-0.698368-81.989632 22.50752-152.9344 112.156672-155.359232 197.646336-1.140736 40.247296-0.421888 80.54784-0.512 120.823808-0.004096 1.968128 0.282624 3.936256 0.48128 6.508544 3.77856 0.167936 7.100416 0.44032 10.422272 0.444416 27.648 0.032768 55.296 0.02048 82.944 0.02048 119.126016 0 238.249984-0.047104 357.373952 0.2048 3.262464 0.006144 7.186432 0.681984 9.740288 2.873344 1.253376 1.077248 2.230272 2.351104 2.635776 3.975168 0.223232 0.897024 0.802816 3.79904 0.776192 4.724736-0.069632 2.480128-0.202752 2.781184-0.837632 5.126144-0.970752 3.575808-3.67616 5.664768-7.176192 6.506496a33.110016 33.110016 0 0 1-7.550976 0.933888c-145.068032 0.208896-290.134016 0.172032-435.2 0.172032h-13.641728z m440.551424-385.8944c5.90848-57.759744-9.172992-106.979328-60.848128-138.3424-46.475264-28.205056-94.584832-26.7776-139.61216 3.700736-47.761408 32.325632-60.923904 80.164864-54.874112 134.641664h255.3344z m-251.232256 173.467648h-0.07168c0-5.799936 0.364544-11.628544-0.079872-17.393664-0.796672-10.336256-8.155136-16.621568-18.440192-16.308224-9.736192 0.294912-16.564224 6.682624-16.953344 16.756736-0.405504 10.565632-0.356352 21.164032-0.063488 31.735808 0.301056 10.852352 6.90176 17.516544 16.963584 17.844224 10.760192 0.352256 17.852416-6.0928 18.587648-17.283072 0.335872-5.095424 0.057344-10.231808 0.057344-15.351808z m246.980608-0.79872c0 5.459968-0.251904 10.93632 0.055296 16.377856 0.587776 10.530816 7.555072 17.086464 17.73568 17.078272 10.184704-0.008192 17.260544-6.42048 17.73568-17.076224 0.47104-10.55744 0.452608-21.16608 0.047104-31.727616-0.432128-11.2128-7.632896-17.784832-18.292736-17.563648-10.160128 0.210944-16.756736 6.803456-17.26464 17.555456-0.237568 5.10976-0.036864 10.235904-0.016384 15.355904z" fill="" p-id="3094"></path></svg>